<svg xmlns="http://www.w3.org/2000/svg" viewBox="0 0 24 24" id="podcasts">
  <path fill="#9531C7" d="M1.24 13.059a11.111 11.111 0 0 0 1.11 3.01 11.06 11.06 0 0 0 5.155 4.754c.395.181.807.332 1.217.468a20.495 20.495 0 0 1-.274-1.325c-.014-.136-.046-.271-.061-.392-.244-.104-.471-.21-.699-.314a9.543 9.543 0 0 1-4.303-4.394 9.366 9.366 0 0 1-.76-5.523c.168-.947.47-1.865.911-2.723a9.426 9.426 0 0 1 2.068-2.678 9.469 9.469 0 0 1 6.631-2.437 9.28 9.28 0 0 1 3.557.782 9.56 9.56 0 0 1 2.906 1.972 9.072 9.072 0 0 1 1.944 2.784c.413.883.672 1.824.778 2.787a9.158 9.158 0 0 1-.168 3.088 9.321 9.321 0 0 1-.983 2.572 9.576 9.576 0 0 1-4.394 3.993c-.117.052-.234.1-.35.15l-.054.36c-.071.455-.162.904-.278 1.351l.021-.023c.577-.18 1.14-.405 1.673-.661a11.027 11.027 0 0 0 4.972-4.922c.472-.962.822-2 .989-3.053.198-1.129.198-2.302.016-3.446a10.671 10.671 0 0 0-1.019-3.175A11.033 11.033 0 0 0 16.007.759a11.217 11.217 0 0 0-4.183-.758c-1.423.017-2.838.31-4.155.857a10.584 10.584 0 0 0-3.345 2.211 11.226 11.226 0 0 0-2.293 3.204 11.23 11.23 0 0 0-.943 3.22 10.312 10.312 0 0 0 .152 3.566z"></path>
  <path fill="#9531C7" d="M11.929 7.474v.021c-1.483 0-2.683 1.19-2.683 2.649s1.201 2.648 2.683 2.648a2.671 2.671 0 0 0 2.682-2.662c.001-1.468-1.201-2.656-2.682-2.656z"></path>
  <path fill="#9531C7" d="M17.159 8.594c.226.512.381 1.053.456 1.61.09.632.061 1.263-.062 1.865a5.563 5.563 0 0 1-.563 1.551 5.479 5.479 0 0 1-1.384 1.67c.03.12.061.225.076.346.047.311.047.627.047.943l-.01.47-.115.106a7.161 7.161 0 0 0 2.858-3.176 6.82 6.82 0 0 0 .594-2.046 6.978 6.978 0 0 0-.046-2.182 7.283 7.283 0 0 0-.685-2.001 7.384 7.384 0 0 0-1.581-2.047 7.15 7.15 0 0 0-2.22-1.368 7.55 7.55 0 0 0-2.843-.497 7.51 7.51 0 0 0-2.799.632c-.79.346-1.52.842-2.143 1.459A7.337 7.337 0 0 0 5.265 8.05a7.1 7.1 0 0 0-.578 2.032 6.754 6.754 0 0 0 .091 2.347c.138.693.38 1.355.731 1.972a7.132 7.132 0 0 0 2.54 2.663v-.422c0-.33-.015-.631.045-.947l.092-.406a5.901 5.901 0 0 1-1.506-2.002 5.927 5.927 0 0 1-.456-1.609 5.552 5.552 0 0 1 .593-3.31 5.405 5.405 0 0 1 1.248-1.624 5.856 5.856 0 0 1 1.749-1.083 6.062 6.062 0 0 1 2.251-.392c.76.016 1.521.196 2.22.496a6.006 6.006 0 0 1 1.704 1.159 5.842 5.842 0 0 1 1.17 1.67z"></path>
  <path fill="#9531C7" d="M11.929 13.573c-1.469 0-2.662 1.182-2.662 2.633C9.267 24 11.929 24 11.929 24s2.661 0 2.661-7.794c0-1.451-1.192-2.633-2.661-2.633z"></path>
</svg>